<?xml version="1.0" encoding="UTF-8"?>
<svg version="1.1" xmlns="http://www.w3.org/2000/svg" width="360" height="79">
<path d="M0 0 C-0.60556376 3.32321576 -1.76471817 5.26077027 -3.875 7.875 C-5.94900058 10.47719232 -7.03595046 12.10585413 -8.125 15.3125 C-10.92040016 19.31924023 -14.41746648 19.27271043 -19.046875 20.234375 C-24.27392117 21.58953512 -26.70110176 24.22483907 -29.875 28.5625 C-31.78015179 34.38379713 -32.289178 40.59524785 -30.0859375 46.4140625 C-27.19127548 51.40035127 -23.50401259 54.64360803 -18.0625 56.75 C-11.09075323 57.59506021 -5.95310164 56.73046144 0 53 C5.23955309 48.55970077 5.67271536 42.98612508 6.48828125 36.4765625 C8.34487076 23.86309179 13.01225922 13.63285867 22.93359375 5.5 C32.34880661 -1.33448344 42.8309569 -2.98866204 54.24609375 -1.7578125 C63.86537279 -0.07743933 73.05788839 5.23068907 79 13 C85.72014133 23.25132671 88.61416727 33.5320273 86.53515625 45.7265625 C83.87509502 56.90196768 78.26032291 65.2153641 69 72 C58.64587869 78.30012672 45.25091408 78.98059485 33.56640625 76.17578125 C30.04860999 74.76970816 27.15267447 73.10178298 24 71 C25.54385129 66.85967154 27.51028938 63.06446947 29.625 59.1875 C29.94984375 58.59001953 30.2746875 57.99253906 30.609375 57.37695312 C31.40379151 55.91662865 32.20155376 54.45812509 33 53 C35.47924559 53.97854138 37.91489049 54.95859537 40.3125 56.125 C45.64209088 57.86021563 50.14487101 57.65845464 55.1875 55.375 C59.93536917 52.73522205 62.67955526 49.38937619 65.3125 44.625 C66.97427293 38.28004881 66.4161193 33.48362976 63.26953125 27.82421875 C60.24884904 23.48373077 56.15074258 20.34900401 51 19 C44.66049417 18.37644205 40.26512148 19.33583623 35 23 C29.89628272 27.71609319 27.97393487 32.68800388 27.41967773 39.51928711 C26.42294712 51.52164467 22.37911008 60.74658533 13.4453125 69.08984375 C2.32527309 77.77626431 -9.46079846 77.9446584 -23 77 C-32.50768695 75.21018363 -40.88585913 68.36988171 -46.4375 60.625 C-52.63118094 50.27295536 -54.01568229 37.74601129 -51.30859375 26 C-50.38126725 23.51678259 -49.30767329 21.30380058 -48 19 C-47.59910156 18.23429687 -47.19820312 17.46859375 -46.78515625 16.6796875 C-41.05888179 6.88692827 -31.90284963 1.49901542 -21.140625 -1.3828125 C-13.64024594 -2.85676759 -7.27442355 -2.15538476 0 0 Z " fill="#F4F4F4" transform="translate(52,2)"/>
<path d="M0 0 C5.28 0 10.56 0 16 0 C16 26.07 16 52.14 16 79 C10.72 79 5.44 79 0 79 C-0.33 78.34 -0.66 77.68 -1 77 C-1.96679688 77.48339844 -1.96679688 77.48339844 -2.953125 77.9765625 C-10.54620489 80.52705857 -21.68615307 80.47829181 -29.125 77.4375 C-37.42512686 72.78291906 -43.73485438 66.26008211 -46.609375 57.046875 C-48.41011258 47.61101006 -46.64680906 38.87146417 -41.59765625 30.7421875 C-36.47793619 24.15790205 -29.20914642 20.19938112 -21.1328125 18.33984375 C-14.42578477 17.51334033 -7.13604742 17.93197629 -1 21 C-0.67 14.07 -0.34 7.14 0 0 Z M-24 36 C-27.03809518 38.81360539 -29.77557356 41.9544082 -30.23828125 46.171875 C-30.40659218 52.01846537 -30.02425335 55.43192863 -26 60 C-22.23517393 63.76482607 -19.33658808 64.90798986 -14 65 C-7.92764707 63.11547668 -3.94943186 60.1899794 -0.625 54.75 C0.62109515 49.26718134 -0.17781131 44.58564961 -2.75 39.625 C-5.79933137 36.06744673 -8.36542517 34.50853439 -12.8125 33.125 C-17.09657465 32.95699707 -20.28743088 33.86107129 -24 36 Z " fill="#F4F4F4" transform="translate(272,0)"/>
<path d="M0 0 C0.33 -0.66 0.66 -1.32 1 -2 C6.28 -2 11.56 -2 17 -2 C17 17.8 17 37.6 17 58 C11.72 58 6.44 58 1 58 C0.67 57.34 0.34 56.68 0 56 C-0.63550781 56.32097656 -1.27101563 56.64195313 -1.92578125 56.97265625 C-10.10044698 59.70446957 -21.92819218 59.61266163 -29.75 55.9375 C-38.08284753 50.76939247 -42.9251195 44.2246415 -46 35 C-46.87070503 23.89494244 -45.7497766 16.2972633 -38.625 7.6875 C-28.38711246 -3.17543751 -13.77558853 -5.58469805 0 0 Z M-25.875 17.0625 C-28.83575933 21.15531437 -29.81889111 24.96832247 -30 30 C-28.29814728 36.10664799 -25.13995146 40.13300183 -19.6875 43.375 C-15.87222086 44.26227422 -12.67990796 44.26939944 -9 43 C-4.81272164 40.32131929 -1.73915784 37.41918306 0.5625 33 C1.24023769 28.35265581 0.74965074 24.6571227 -1.1875 20.375 C-4.167632 16.46999944 -7.19001615 13.6295596 -11.875 12 C-17.40527361 12 -21.4241184 13.86947624 -25.875 17.0625 Z " fill="#F4F4F4" transform="translate(343,21)"/>
<path d="M0 0 C5.28 0 10.56 0 16 0 C16.33 6.6 16.66 13.2 17 20 C19.31 19.34 21.62 18.68 24 18 C31.72409172 17.72115192 38.52025865 18.68532736 45 23 C45.886875 23.5775 46.77375 24.155 47.6875 24.75 C54.00649739 30.89821368 57.00765009 38.41777913 57.22705078 47.21289062 C57.22674008 48.69404817 57.2158011 50.17523414 57.1953125 51.65625 C57.1924826 52.44398804 57.18965271 53.23172607 57.18673706 54.04333496 C57.17565169 56.52905264 57.1505701 59.0143935 57.125 61.5 C57.1149551 63.19791142 57.10583191 64.89582855 57.09765625 66.59375 C57.07746253 70.7294243 57.03829355 74.8642965 57 79 C51.39 79 45.78 79 40 79 C39.97421875 76.39867188 39.9484375 73.79734375 39.921875 71.1171875 C39.88341233 68.58517852 39.83826588 66.05337029 39.79248047 63.52148438 C39.76433416 61.76800188 39.74308815 60.01439401 39.72900391 58.26074219 C39.70748573 55.73307401 39.66079298 53.20690316 39.609375 50.6796875 C39.60814636 49.90132538 39.60691772 49.12296326 39.60565186 48.3210144 C39.46739062 43.13014519 38.40988872 40.13148011 35 36 C31.53598574 34.07172169 28.09741467 33.77552882 24.25 34.5625 C20.47317291 36.97547286 18.40880685 39.77357944 17 44 C16.84653047 46.65606301 16.74282102 49.29095095 16.68359375 51.94921875 C16.66281265 52.72183548 16.64203156 53.49445221 16.62062073 54.29048157 C16.55528962 56.7560648 16.49631685 59.22175361 16.4375 61.6875 C16.39429913 63.36003691 16.35068434 65.03256319 16.30664062 66.70507812 C16.19884676 70.80327882 16.09965165 74.90156084 16 79 C10.72 79 5.44 79 0 79 C-0.68390209 66.96332329 -0.68390209 66.96332329 3.69140625 60.90234375 C9.09237862 53.05078093 9.81024073 41.95382253 8.5625 32.78515625 C7.09943684 26.3260649 4.82722047 17.82722047 0 13 C-0.14393457 8.66469082 -0.04212061 4.33842269 0 0 Z " fill="#F4F4F4" transform="translate(135,0)"/>
<path d="M0 0 C2.475 0.495 2.475 0.495 5 1 C8.90830483 1.1371335 12.23586964 1.01341971 16 0 C17 1 17 1 17.12025452 2.94252014 C17.1169236 4.21826149 17.1169236 4.21826149 17.11352539 5.51977539 C17.11344986 6.48069595 17.11337433 7.44161652 17.11329651 8.43165588 C17.10813522 9.476436 17.10297394 10.52121613 17.09765625 11.59765625 C17.0962413 12.66165146 17.09482635 13.72564667 17.09336853 14.82188416 C17.08775064 18.23545083 17.07519511 21.648953 17.0625 25.0625 C17.05748731 27.37044176 17.052924 29.67838455 17.04882812 31.98632812 C17.03777539 37.65757711 17.02049877 43.3287776 17 49 C11.39 49 5.78 49 0 49 C0 32.83 0 16.66 0 0 Z " fill="#F4F4F4" transform="translate(200,30)"/>
<path d="M0 0 C3.14674823 2.74331897 3.89954133 4.37492386 4.5625 8.5 C4 12 4 12 2 14.9375 C-2.15080314 17.79117716 -4.0301078 17.7099846 -9 17 C-11.5 15.5625 -11.5 15.5625 -13 13 C-13.54674353 9.89609142 -13.58135149 7.10054128 -13 4 C-9.15919646 -1.12107138 -6.10680729 -1.47405693 0 0 Z " fill="#F4F4F4" transform="translate(213,10)"/>
</svg>
