<?xml version="1.0" encoding="UTF-8"?>
<svg version="1.1" xmlns="http://www.w3.org/2000/svg" width="360" height="79">
<path d="M0 0 C1.29808594 -0.01417969 2.59617188 -0.02835937 3.93359375 -0.04296875 C7.31722799 0.17192298 9.54355663 0.71583782 12.5625 2.1875 C10.72807994 6.05821409 8.41430094 9.4769259 5.9921875 13 C4.44681049 15.23870944 4.44681049 15.23870944 3.25 18.125 C0.86190015 21.0437887 -1.54279292 21.03834681 -5.15625 21.671875 C-10.71488239 22.92827821 -14.29243439 26.64462746 -17.4375 31.1875 C-19.27616817 36.70350451 -19.54762241 43.09608288 -17.56640625 48.61328125 C-14.85626397 53.33159454 -11.5547814 56.31506439 -6.4375 58.1875 C-0.14660449 59.70949085 4.81254347 59.30978822 10.5625 56.1875 C14.62313158 53.16904572 17.07498861 50.10537477 18.33203125 45.16015625 C18.65631905 42.94287135 18.94060146 40.71941807 19.1875 38.4921875 C20.48765618 27.03456113 24.96078065 16.77382939 33.4375 8.7890625 C43.79009171 0.98655772 53.92640094 -0.5590529 66.5625 0.1875 C76.9058976 1.87797218 86.08741257 8.0169408 92.5625 16.1875 C98.7419238 26.05490882 101.20412813 36.84428868 98.9453125 48.32421875 C95.90066807 59.70795567 90.08116999 68.49787272 80.03515625 74.81640625 C70.25511997 80.23945954 58.18111799 81.14028656 47.31640625 78.35546875 C44.96188689 77.4213578 42.77955685 76.40732646 40.5625 75.1875 C39.23009003 74.5189898 37.89702807 73.85177182 36.5625 73.1875 C37.39049187 68.71634391 39.78532634 65.41304308 42.1875 61.625 C43.43225452 59.41838972 44.10473078 57.65945376 44.5625 55.1875 C47.74294252 55.68444414 50.43999384 56.54471628 53.375 57.8125 C58.4075468 59.73281391 62.52206212 59.44454458 67.48046875 57.39453125 C72.59177832 54.72444416 75.53432174 51.55230999 77.8125 46.3125 C79.3491649 39.90972959 78.71136619 35.14414494 75.90625 29.2734375 C73.17599019 25.03518536 69.31834465 22.77278155 64.5625 21.1875 C57.87811638 20.4632595 51.94931403 20.86607808 46.5625 25.1875 C41.96860759 30.86701375 40.52834026 36.11103408 39.75 43.3125 C38.24452707 55.46236405 33.04633976 65.07915179 23.4921875 72.87109375 C13.5403671 79.66008864 2.24377579 80.3069556 -9.4375 79.1875 C-20.43978064 76.67023713 -28.98775324 69.50448942 -34.9375 60.0625 C-40.51875945 50.42509269 -40.95423457 38.70759715 -38.78515625 27.953125 C-35.27851014 17.29773683 -28.00004998 9.08109009 -18.0703125 3.96875 C-11.81162215 1.09590853 -6.95276074 0.03445372 0 0 Z " fill="#272D2D" transform="translate(39.4375,-0.1875)"/>
<path d="M0 0 C5.28 0 10.56 0 16 0 C16 26.07 16 52.14 16 79 C10.72 79 5.44 79 0 79 C0 78.01 0 77.02 0 76 C-1.49080078 76.72896484 -1.49080078 76.72896484 -3.01171875 77.47265625 C-10.62252606 80.71858236 -20.85953226 80.19863388 -28.5625 77.375 C-37.39571053 73.13624461 -42.78762539 66.68896329 -46.3125 57.625 C-47.8502191 49.51702656 -47.66392176 41.5262087 -44 34 C-38.33281344 25.81007849 -30.92030419 19.92682831 -21 18 C-19.274602 17.85870757 -17.54341405 17.77997254 -15.8125 17.75 C-14.93207031 17.72421875 -14.05164063 17.6984375 -13.14453125 17.671875 C-10 18 -10 18 -1 21 C-0.67 14.07 -0.34 7.14 0 0 Z M-25.4453125 37.46875 C-29.60837755 42.3216944 -30.35829446 45.21873857 -30.27734375 51.4609375 C-29.72366713 56.52980798 -26.98848103 59.12645862 -23.3125 62.375 C-19.0333271 64.47421689 -15.68209654 64.83218592 -11 64 C-6.65268775 61.7853315 -3.51567163 59.19278605 -1 55 C0.41547619 50.23304148 0.47626057 46.25978313 -1.5625 41.6875 C-4.07801645 37.37763905 -7.07437699 34.84257943 -11.953125 33.4375 C-17.42458075 32.43509589 -21.40496001 33.36287828 -25.4453125 37.46875 Z " fill="#272D2D" transform="translate(272,0)"/>
<path d="M0 0 C0.33 -0.66 0.66 -1.32 1 -2 C6.28 -2 11.56 -2 17 -2 C17 17.8 17 37.6 17 58 C11.72 58 6.44 58 1 58 C1 57.01 1 56.02 1 55 C-0.49080078 55.72896484 -0.49080078 55.72896484 -2.01171875 56.47265625 C-9.58371428 59.70202956 -19.81455031 59.2018788 -27.5 56.4375 C-35.85959387 52.38393854 -41.06003785 46.76408405 -44.9296875 38.31640625 C-47.5844606 30.09048522 -47.12528331 21.16499812 -43.453125 13.31640625 C-38.23921765 5.00498942 -31.33068492 0.18738179 -22.0625 -2.578125 C-14.3336439 -4.15902738 -7.19553207 -2.98481331 0 0 Z M-27.4375 18.75 C-30.01074289 24.10234521 -30.59197662 27.9454929 -28.9375 33.6875 C-26.40978339 38.00908001 -23.53974732 40.73012634 -19 43 C-14.38108804 43.56350726 -10.90158688 43.4422879 -6.6875 41.375 C-2.68158979 37.8348933 -0.47549087 34.74346651 0.9375 29.5625 C1.03612846 23.94067785 -0.78830936 20.43489681 -4.375 16.1875 C-7.62723605 13.47730329 -10.16090303 12.29823194 -14.3125 11.625 C-19.74406508 12.3828928 -23.81587748 14.6640669 -27.4375 18.75 Z " fill="#272D2D" transform="translate(343,21)"/>
<path d="M0 0 C5.28 0 10.56 0 16 0 C16 6.6 16 13.2 16 20 C17.98 19.34 19.96 18.68 22 18 C31.69861095 16.86054571 40.04250359 18.67580019 47.8125 24.6875 C53.23800029 29.75386552 56.0376301 35.71836562 57 43 C57.08059165 45.82954674 57.11695324 48.63258298 57.09765625 51.4609375 C57.0962413 52.25150543 57.09482635 53.04207336 57.09336853 53.8565979 C57.08780504 56.36277166 57.07525944 58.86885358 57.0625 61.375 C57.05748028 63.08202995 57.0529182 64.78906132 57.04882812 66.49609375 C57.03870171 70.6641257 57.01911945 74.83196096 57 79 C51.39 79 45.78 79 40 79 C39.97421875 76.39867188 39.9484375 73.79734375 39.921875 71.1171875 C39.88341233 68.58517852 39.83826588 66.05337029 39.79248047 63.52148438 C39.76433416 61.76800188 39.74308815 60.01439401 39.72900391 58.26074219 C39.70748573 55.73307401 39.66079298 53.20690316 39.609375 50.6796875 C39.60814636 49.90132538 39.60691772 49.12296326 39.60565186 48.3210144 C39.46717812 43.12216711 38.39258714 40.15030212 35 36 C31.794598 33.64937186 28.90117562 33.60192085 25 34 C21.67781274 35.39068304 20.29624855 36.52447735 18.38745117 39.58837891 C16.71046937 43.71193051 16.52546387 47.05897244 16.48828125 51.4609375 C16.47033005 52.25150543 16.45237885 53.04207336 16.43388367 53.8565979 C16.38003294 56.36267891 16.34596719 58.86857227 16.3125 61.375 C16.27930452 63.08205722 16.24481281 64.78908976 16.20898438 66.49609375 C16.12189805 70.6640857 16.0616177 74.83124373 16 79 C10.72 79 5.44 79 0 79 C-0.63809496 71.52517334 -0.22443153 66.47923734 3.375 59.875 C9.24450627 49.06460468 10.41670758 38.97961488 7.17578125 26.9375 C5.76307985 22.82782321 4.44163491 19.56431128 1.75 16.125 C-1.13959782 10.9650039 -0.23794839 5.82973563 0 0 Z " fill="#272D2D" transform="translate(135,0)"/>
<path d="M0 0 C3.63 0.33 7.26 0.66 11 1 C12.98 0.67 14.96 0.34 17 0 C17 16.17 17 32.34 17 49 C11.39 49 5.78 49 0 49 C0 32.83 0 16.66 0 0 Z " fill="#272D2D" transform="translate(200,30)"/>
<path d="M0 0 C4.63235294 2.26470588 4.63235294 2.26470588 6 5 C6.58394161 12.24087591 6.58394161 12.24087591 4.125 15.4375 C0.59275913 18.03473593 -1.59636677 18.5180745 -6 18 C-8.85801731 16.01181405 -10.61901083 14.52395669 -11.484375 11.0625 C-11.75726358 7.06013415 -11.24266331 5.3425835 -8.875 2 C-5.47539234 -0.36494446 -4.05412149 -0.67568691 0 0 Z " fill="#272D2D" transform="translate(211,9)"/>
</svg>
